<svg width="470" height="241" viewBox="0 0 470 241" fill="none" xmlns="http://www.w3.org/2000/svg">
    <g filter="url(#filter0_b_1_71)">
        <g clip-path="url(#clip0_1_71)">
            <rect x="1" y="1" width="468" height="239" rx="7.53543" fill="#3A2C5D"
                fill-opacity="1" />
            <path
                d="M108.933 196.5C76.2017 206.333 8.99176 226 2 226V285H468.5V85L377.293 141L302.748 128.5L196.33 150.5L108.933 196.5Z"
                fill="url(#paint0_linear_1_71)" fill-opacity="0.41" />
            <path
                d="M0 229C6.99176 229 76.7017 206.756 109.433 196.889L196.83 150.728L303.248 128.652L377.793 141.195L469 85"
                stroke="white" stroke-opacity="0.35" />
            <circle cx="110" cy="196" r="3" fill="#3B2E60" />
            <circle cx="110" cy="196" r="2.5" stroke="white" stroke-opacity="0.23" />
            <circle cx="198" cy="150" r="3" fill="#3B2E60" />
            <circle cx="198" cy="150" r="2.5" stroke="white" stroke-opacity="0.23" />
            <circle cx="301" cy="129" r="3" fill="#3B2E60" />
            <circle cx="301" cy="129" r="2.5" stroke="white" stroke-opacity="0.23" />
            <circle cx="379" cy="141" r="3" fill="#3B2E60" />
            <circle cx="379" cy="141" r="2.5" stroke="white" stroke-opacity="0.23" />
            <path d="M1.5 39.5H468.5" stroke="white" stroke-opacity="0.1" />
            <path opacity="0.95"
                d="M35.79 21.21V16.6H35.05V21.21C35.05 21.61 35 22.19 34.8 22.55C34.47 23.15 33.95 23.46 33.27 23.46C32.59 23.46 32.07 23.15 31.74 22.55C31.54 22.19 31.49 21.61 31.49 21.21V16.6H30.75V21.21C30.75 21.71 30.82 22.3 31.03 22.75C31.45 23.65 32.29 24.13 33.27 24.13C34.25 24.13 35.09 23.65 35.51 22.75C35.72 22.3 35.79 21.71 35.79 21.21ZM43.1827 21.25C43.1827 19.61 41.8527 18.39 40.2427 18.39C39.3827 18.39 38.6127 18.78 38.1127 19.49H38.0927V18.53H37.3927V25.92H38.0927V23.04H38.1127C38.5927 23.74 39.3927 24.13 40.2427 24.13C41.8827 24.13 43.1827 22.9 43.1827 21.25ZM42.4827 21.28C42.4827 22.56 41.5227 23.5 40.2427 23.5C39.0027 23.5 38.0527 22.49 38.0527 21.27C38.0527 20.05 39.0027 19.02 40.2427 19.02C41.5427 19.02 42.4827 19.99 42.4827 21.28ZM49.9491 24V16.6H49.2491V19.47H49.2291C48.7491 18.77 47.9391 18.39 47.0991 18.39C45.4891 18.39 44.1591 19.61 44.1591 21.25C44.1591 22.9 45.4591 24.13 47.0991 24.13C47.9291 24.13 48.7591 23.74 49.2291 23.04H49.2491V24H49.9491ZM49.2891 21.27C49.2891 22.49 48.3391 23.5 47.0991 23.5C45.8191 23.5 44.8591 22.56 44.8591 21.28C44.8591 19.99 45.7991 19.02 47.0991 19.02C48.3391 19.02 49.2891 20.05 49.2891 21.27ZM57.0248 24V18.53H56.3248V19.49H56.3048C55.8348 18.75 55.0348 18.39 54.1748 18.39C52.5648 18.39 51.2348 19.61 51.2348 21.25C51.2348 22.9 52.5348 24.13 54.1748 24.13C55.0248 24.13 55.8248 23.76 56.3048 23.04H56.3248V24H57.0248ZM56.3648 21.27C56.3648 22.49 55.4148 23.5 54.1748 23.5C52.8948 23.5 51.9348 22.56 51.9348 21.28C51.9348 19.99 52.8748 19.02 54.1748 19.02C55.4148 19.02 56.3648 20.05 56.3648 21.27ZM61.141 19.16V18.53H59.831V16.6H59.131V18.53H57.981V19.16H59.131V24H59.831V19.16H61.141ZM67.5197 21.32C67.5197 19.74 66.2497 18.39 64.6497 18.39C63.0797 18.39 61.8097 19.71 61.8097 21.27C61.8097 22.84 63.0797 24.13 64.6597 24.13C65.8697 24.13 66.9497 23.35 67.3497 22.21H66.6097C66.3097 23.02 65.4897 23.5 64.6497 23.5C63.5797 23.5 62.5797 22.6 62.5297 21.52H67.5097C67.5097 21.45 67.5197 21.39 67.5197 21.32ZM66.7997 20.89H62.5297C62.6997 19.82 63.5697 19.02 64.6597 19.02C65.7597 19.02 66.6197 19.82 66.7997 20.89ZM71.7736 22.46C71.7736 20.44 69.2336 21.09 69.2336 19.84C69.2336 19.37 69.5936 19.02 70.0636 19.02C70.5636 19.02 70.8536 19.41 70.8836 19.88H71.5836C71.5836 19.04 70.9336 18.39 70.0936 18.39C69.2036 18.39 68.5336 19.01 68.5336 19.91C68.5336 21.74 71.0736 21.07 71.0736 22.52C71.0736 23.15 70.6736 23.5 70.0536 23.5C69.3836 23.5 69.0836 23.01 69.0736 22.38H68.3736V22.44C68.3736 23.42 69.0736 24.13 70.0536 24.13C71.0836 24.13 71.7736 23.51 71.7736 22.46Z"
                fill="white" />
            <circle cx="436.5" cy="20.5" r="8.5" fill="#473A6B" />
            <g clip-path="url(#clip1_1_71)">
                <path d="M433.406 20.5H439.594" stroke="white" stroke-width="0.5625"
                    stroke-linecap="round" stroke-linejoin="round" />
                <path d="M436.5 17.4062V23.5938" stroke="white" stroke-width="0.5625"
                    stroke-linecap="round" stroke-linejoin="round" />
            </g>
            <path opacity="0.53"
                d="M48.897 75.642H48.316C47.875 76.23 47.252 76.622 46.503 76.622C45.334 76.622 44.319 75.586 44.319 74.424C44.319 73.248 45.306 72.205 46.496 72.205C47.21 72.205 47.896 72.555 48.295 73.15H48.876C48.799 72.968 48.68 72.807 48.547 72.66C48.029 72.072 47.287 71.736 46.503 71.736C44.998 71.736 43.801 72.905 43.801 74.417C43.801 75.915 45.026 77.091 46.51 77.091C47.511 77.091 48.421 76.517 48.897 75.642ZM53.1213 77V73.171H52.6313V75.194C52.6313 75.642 52.5683 76.02 52.2323 76.342C51.9943 76.566 51.7423 76.65 51.4203 76.65C50.5453 76.65 50.2583 76.069 50.2583 75.278V73.171H49.7683V75.285C49.7683 75.712 49.8313 76.174 50.1043 76.517C50.4193 76.916 50.9233 77.091 51.4203 77.091C51.9243 77.091 52.4213 76.874 52.6453 76.405H52.6593V77H53.1213ZM56.2811 75.922C56.2811 74.508 54.5031 74.963 54.5031 74.088C54.5031 73.759 54.7551 73.514 55.0841 73.514C55.4341 73.514 55.6371 73.787 55.6581 74.116H56.1481C56.1481 73.528 55.6931 73.073 55.1051 73.073C54.4821 73.073 54.0131 73.507 54.0131 74.137C54.0131 75.418 55.7911 74.949 55.7911 75.964C55.7911 76.405 55.5111 76.65 55.0771 76.65C54.6081 76.65 54.3981 76.307 54.3911 75.866H53.9011V75.908C53.9011 76.594 54.3911 77.091 55.0771 77.091C55.7981 77.091 56.2811 76.657 56.2811 75.922ZM58.897 73.612V73.171H57.98V71.82H57.49V73.171H56.685V73.612H57.49V77H57.98V73.612H58.897ZM63.3971 75.082C63.3971 73.99 62.4801 73.073 61.3881 73.073C60.2751 73.073 59.3931 74.004 59.3931 75.11C59.3931 76.188 60.3101 77.091 61.3881 77.091C62.4871 77.091 63.3971 76.181 63.3971 75.082ZM62.9071 75.061C62.9071 75.922 62.2771 76.65 61.3951 76.65C60.5481 76.65 59.8831 75.936 59.8831 75.103C59.8831 74.256 60.5271 73.514 61.3951 73.514C62.2351 73.514 62.9071 74.228 62.9071 75.061ZM69.93 77V74.725C69.93 73.787 69.377 73.073 68.397 73.073C67.837 73.073 67.403 73.339 67.109 73.808C66.843 73.332 66.367 73.073 65.821 73.073C65.401 73.073 65.009 73.248 64.778 73.612V73.171H64.288V77H64.778V74.781C64.778 74.102 65.065 73.514 65.821 73.514C66.577 73.514 66.864 74.102 66.864 74.781V77H67.354V74.781C67.354 74.102 67.641 73.514 68.397 73.514C69.153 73.514 69.44 74.102 69.44 74.781V77H69.93ZM73.5617 77V71.82H73.0717V77H73.5617ZM75.1031 72.702V71.82H74.6131V72.702H75.1031ZM75.1031 77V73.171H74.6131V77H75.1031ZM79.5215 77V74.893C79.5215 73.836 78.9335 73.073 77.8345 73.073C77.3795 73.073 76.9105 73.269 76.6585 73.661H76.6445V73.171H76.1545V77H76.6445V74.858C76.6445 74.508 76.7355 74.095 77.0015 73.843C77.2255 73.633 77.5265 73.514 77.8345 73.514C78.1425 73.514 78.4435 73.633 78.6675 73.843C78.9405 74.102 79.0315 74.529 79.0315 74.893V77H79.5215ZM82.4219 73.612V73.171H81.5049V71.82H81.0149V73.171H80.2099V73.612H81.0149V77H81.5049V73.612H82.4219ZM85.172 75.922C85.172 74.508 83.394 74.963 83.394 74.088C83.394 73.759 83.646 73.514 83.975 73.514C84.325 73.514 84.528 73.787 84.549 74.116H85.039C85.039 73.528 84.584 73.073 83.996 73.073C83.373 73.073 82.904 73.507 82.904 74.137C82.904 75.418 84.682 74.949 84.682 75.964C84.682 76.405 84.402 76.65 83.968 76.65C83.499 76.65 83.289 76.307 83.282 75.866H82.792V75.908C82.792 76.594 83.282 77.091 83.968 77.091C84.689 77.091 85.172 76.657 85.172 75.922ZM92.0603 75.075C92.0603 73.927 91.1293 73.073 90.0023 73.073C89.4003 73.073 88.8613 73.346 88.5113 73.843H88.4973V73.171H88.0073V78.344H88.4973V76.328H88.5113C88.8473 76.818 89.4073 77.091 90.0023 77.091C91.1503 77.091 92.0603 76.23 92.0603 75.075ZM91.5703 75.096C91.5703 75.992 90.8983 76.65 90.0023 76.65C89.1343 76.65 88.4693 75.943 88.4693 75.089C88.4693 74.235 89.1343 73.514 90.0023 73.514C90.9123 73.514 91.5703 74.193 91.5703 75.096ZM96.8177 77V73.171H96.3277V73.843H96.3137C95.9847 73.325 95.4247 73.073 94.8227 73.073C93.6957 73.073 92.7647 73.927 92.7647 75.075C92.7647 76.23 93.6747 77.091 94.8227 77.091C95.4177 77.091 95.9777 76.832 96.3137 76.328H96.3277V77H96.8177ZM96.3557 75.089C96.3557 75.943 95.6907 76.65 94.8227 76.65C93.9267 76.65 93.2547 75.992 93.2547 75.096C93.2547 74.193 93.9127 73.514 94.8227 73.514C95.6907 73.514 96.3557 74.235 96.3557 75.089ZM101.638 75.873H101.099C100.833 76.384 100.315 76.65 99.7481 76.65C98.8591 76.65 98.1661 75.964 98.1661 75.075C98.1661 74.193 98.8731 73.514 99.7481 73.514C100.322 73.514 100.833 73.822 101.099 74.326H101.638C101.323 73.542 100.567 73.073 99.7341 73.073C98.6141 73.073 97.6761 73.962 97.6761 75.089C97.6761 76.23 98.6071 77.091 99.7341 77.091C100.623 77.091 101.246 76.643 101.638 75.873ZM105.547 77L103.958 75.103L105.47 73.171H104.84L103.055 75.509H103.041V71.82H102.551V77H103.041V76.272L103.657 75.488L104.917 77H105.547ZM109.925 77V73.171H109.435V73.843H109.421C109.092 73.325 108.532 73.073 107.93 73.073C106.803 73.073 105.872 73.927 105.872 75.075C105.872 76.23 106.782 77.091 107.93 77.091C108.525 77.091 109.085 76.832 109.421 76.328H109.435V77H109.925ZM109.463 75.089C109.463 75.943 108.798 76.65 107.93 76.65C107.034 76.65 106.362 75.992 106.362 75.096C106.362 74.193 107.02 73.514 107.93 73.514C108.798 73.514 109.463 74.235 109.463 75.089ZM114.739 76.398V73.171H114.249V73.857H114.235C113.906 73.346 113.36 73.073 112.758 73.073C111.638 73.073 110.756 73.99 110.756 75.103C110.756 76.216 111.652 77.091 112.758 77.091C113.339 77.091 113.955 76.832 114.235 76.3H114.249V76.636C114.249 77.49 113.724 78.064 112.863 78.064C112.198 78.064 111.673 77.714 111.428 77.098H110.91C111.176 78.008 111.946 78.505 112.87 78.505C113.444 78.505 114.039 78.26 114.389 77.798C114.704 77.378 114.739 76.902 114.739 76.398ZM114.277 75.089C114.277 75.929 113.605 76.65 112.758 76.65C111.897 76.65 111.246 75.929 111.246 75.089C111.246 74.242 111.897 73.514 112.758 73.514C113.619 73.514 114.277 74.249 114.277 75.089ZM119.61 75.124C119.61 74.018 118.721 73.073 117.601 73.073C116.502 73.073 115.613 73.997 115.613 75.089C115.613 76.188 116.502 77.091 117.608 77.091C118.455 77.091 119.211 76.545 119.491 75.747H118.973C118.763 76.314 118.189 76.65 117.601 76.65C116.852 76.65 116.152 76.02 116.117 75.264H119.603C119.603 75.215 119.61 75.173 119.61 75.124ZM119.106 74.823H116.117C116.236 74.074 116.845 73.514 117.608 73.514C118.378 73.514 118.98 74.074 119.106 74.823ZM122.587 75.922C122.587 74.508 120.809 74.963 120.809 74.088C120.809 73.759 121.061 73.514 121.39 73.514C121.74 73.514 121.943 73.787 121.964 74.116H122.454C122.454 73.528 121.999 73.073 121.411 73.073C120.788 73.073 120.319 73.507 120.319 74.137C120.319 75.418 122.097 74.949 122.097 75.964C122.097 76.405 121.817 76.65 121.383 76.65C120.914 76.65 120.704 76.307 120.697 75.866H120.207V75.908C120.207 76.594 120.697 77.091 121.383 77.091C122.104 77.091 122.587 76.657 122.587 75.922ZM128.762 77V73.171H128.272V75.194C128.272 75.642 128.209 76.02 127.873 76.342C127.635 76.566 127.383 76.65 127.061 76.65C126.186 76.65 125.899 76.069 125.899 75.278V73.171H125.409V75.285C125.409 75.712 125.472 76.174 125.745 76.517C126.06 76.916 126.564 77.091 127.061 77.091C127.565 77.091 128.062 76.874 128.286 76.405H128.3V77H128.762ZM133.874 75.075C133.874 73.927 132.943 73.073 131.816 73.073C131.214 73.073 130.675 73.346 130.325 73.843H130.311V73.171H129.821V78.344H130.311V76.328H130.325C130.661 76.818 131.221 77.091 131.816 77.091C132.964 77.091 133.874 76.23 133.874 75.075ZM133.384 75.096C133.384 75.992 132.712 76.65 131.816 76.65C130.948 76.65 130.283 75.943 130.283 75.089C130.283 74.235 130.948 73.514 131.816 73.514C132.726 73.514 133.384 74.193 133.384 75.096ZM138.611 77V71.82H138.121V73.829H138.107C137.771 73.339 137.204 73.073 136.616 73.073C135.489 73.073 134.558 73.927 134.558 75.075C134.558 76.23 135.468 77.091 136.616 77.091C137.197 77.091 137.778 76.818 138.107 76.328H138.121V77H138.611ZM138.149 75.089C138.149 75.943 137.484 76.65 136.616 76.65C135.72 76.65 135.048 75.992 135.048 75.096C135.048 74.193 135.706 73.514 136.616 73.514C137.484 73.514 138.149 74.235 138.149 75.089ZM143.564 77V73.171H143.074V73.843H143.06C142.731 73.325 142.171 73.073 141.569 73.073C140.442 73.073 139.511 73.927 139.511 75.075C139.511 76.23 140.421 77.091 141.569 77.091C142.164 77.091 142.724 76.832 143.06 76.328H143.074V77H143.564ZM143.102 75.089C143.102 75.943 142.437 76.65 141.569 76.65C140.673 76.65 140.001 75.992 140.001 75.096C140.001 74.193 140.659 73.514 141.569 73.514C142.437 73.514 143.102 74.235 143.102 75.089ZM146.445 73.612V73.171H145.528V71.82H145.038V73.171H144.233V73.612H145.038V77H145.528V73.612H146.445ZM150.91 75.124C150.91 74.018 150.021 73.073 148.901 73.073C147.802 73.073 146.913 73.997 146.913 75.089C146.913 76.188 147.802 77.091 148.908 77.091C149.755 77.091 150.511 76.545 150.791 75.747H150.273C150.063 76.314 149.489 76.65 148.901 76.65C148.152 76.65 147.452 76.02 147.417 75.264H150.903C150.903 75.215 150.91 75.173 150.91 75.124ZM150.406 74.823H147.417C147.536 74.074 148.145 73.514 148.908 73.514C149.678 73.514 150.28 74.074 150.406 74.823ZM155.666 77V71.82H155.176V73.829H155.162C154.826 73.339 154.259 73.073 153.671 73.073C152.544 73.073 151.613 73.927 151.613 75.075C151.613 76.23 152.523 77.091 153.671 77.091C154.252 77.091 154.833 76.818 155.162 76.328H155.176V77H155.666ZM155.204 75.089C155.204 75.943 154.539 76.65 153.671 76.65C152.775 76.65 152.103 75.992 152.103 75.096C152.103 74.193 152.761 73.514 153.671 73.514C154.539 73.514 155.204 74.235 155.204 75.089Z"
                fill="white" />
            <g opacity="0.31" clip-path="url(#clip2_1_71)">
                <path d="M36.7188 73.0625L34.4258 75.25L33.2812 74.1562" stroke="white"
                    stroke-width="0.625" stroke-linecap="round" stroke-linejoin="round" />
                <path
                    d="M35 77.75C37.0711 77.75 38.75 76.0711 38.75 74C38.75 71.9289 37.0711 70.25 35 70.25C32.9289 70.25 31.25 71.9289 31.25 74C31.25 76.0711 32.9289 77.75 35 77.75Z"
                    stroke="white" stroke-width="0.625" stroke-linecap="round"
                    stroke-linejoin="round" />
            </g>
            <path
                d="M42.525 101.475C42.525 99.575 41.625 97.9 40.025 96.875C41.2 95.8 41.725 94.925 41.725 93.275C41.725 90.35 39.675 88.15 36.725 88.15C36.1 88.15 35.45 88.3 34.85 88.5C32.775 89.275 31.7 90.95 31.575 93.125H34.175C34.325 91.675 35.1 90.525 36.65 90.525C38.075 90.525 39.125 91.675 39.125 93.075C39.125 94.65 38 95.65 36.425 95.65H35.525V98.25H36.475C38.375 98.25 39.925 99.625 39.925 101.575C39.925 103.4 38.45 104.975 36.6 104.975C34.575 104.975 33.25 103.575 33.15 101.55H30.55C30.575 104.825 33.275 107.35 36.525 107.35C39.975 107.35 42.525 104.975 42.525 101.475ZM48.6422 106.725V103.95H46.0422V107H46.9672C46.9672 107.85 46.8672 108.325 46.0422 108.625V110.175C47.9422 109.8 48.6422 108.55 48.6422 106.725ZM63.7258 94.225C63.7258 90.85 61.2258 88.125 57.8008 88.125C57.0008 88.125 56.1758 88.3 55.4258 88.6C52.9508 89.625 51.7508 91.775 51.7508 94.4V100.85C51.7508 102.5 51.9758 103.75 53.0258 105.1C54.1508 106.525 55.9008 107.35 57.7008 107.35C59.4758 107.35 61.2258 106.6 62.3758 105.225C63.5008 103.9 63.7258 102.725 63.7258 101.05V94.225ZM61.1258 101.1C61.1258 102.2 61.0758 102.925 60.3008 103.8C59.6758 104.525 58.7758 104.975 57.8008 104.975C55.5008 104.975 54.3508 103.25 54.3508 101.05V94.225C54.3508 92.1 55.5758 90.5 57.7758 90.5C59.9758 90.5 61.1258 92.125 61.1258 94.225V101.1ZM77.593 94.225C77.593 90.85 75.093 88.125 71.668 88.125C70.868 88.125 70.043 88.3 69.293 88.6C66.818 89.625 65.618 91.775 65.618 94.4V100.85C65.618 102.5 65.843 103.75 66.893 105.1C68.018 106.525 69.768 107.35 71.568 107.35C73.343 107.35 75.093 106.6 76.243 105.225C77.368 103.9 77.593 102.725 77.593 101.05V94.225ZM74.993 101.1C74.993 102.2 74.943 102.925 74.168 103.8C73.543 104.525 72.643 104.975 71.668 104.975C69.368 104.975 68.218 103.25 68.218 101.05V94.225C68.218 92.1 69.443 90.5 71.643 90.5C73.843 90.5 74.993 92.125 74.993 94.225V101.1ZM91.4602 94.225C91.4602 90.85 88.9602 88.125 85.5352 88.125C84.7352 88.125 83.9102 88.3 83.1602 88.6C80.6852 89.625 79.4852 91.775 79.4852 94.4V100.85C79.4852 102.5 79.7102 103.75 80.7602 105.1C81.8852 106.525 83.6352 107.35 85.4352 107.35C87.2102 107.35 88.9602 106.6 90.1102 105.225C91.2352 103.9 91.4602 102.725 91.4602 101.05V94.225ZM88.8602 101.1C88.8602 102.2 88.8102 102.925 88.0352 103.8C87.4102 104.525 86.5102 104.975 85.5352 104.975C83.2352 104.975 82.0852 103.25 82.0852 101.05V94.225C82.0852 92.1 83.3102 90.5 85.5102 90.5C87.7102 90.5 88.8602 92.125 88.8602 94.225V101.1Z"
                fill="white" />
            <path opacity="0.53"
                d="M36.204 125.291C36.204 124.499 35.852 123.784 35.192 123.333C34.576 122.915 33.817 122.86 33.091 122.86H30.825V131H31.639V127.722H33.091C33.817 127.722 34.576 127.667 35.192 127.249C35.852 126.798 36.204 126.083 36.204 125.291ZM35.39 125.291C35.39 125.962 35.049 126.49 34.444 126.776C33.982 126.996 33.553 126.985 33.047 126.985H31.639V123.597H33.047C33.553 123.597 33.982 123.586 34.444 123.806C35.049 124.092 35.39 124.62 35.39 125.291ZM38.2148 131V122.86H37.4448V131H38.2148ZM45.1029 131V124.983H44.3329V128.162C44.3329 128.866 44.2339 129.46 43.7059 129.966C43.3319 130.318 42.9359 130.45 42.4299 130.45C41.0549 130.45 40.6039 129.537 40.6039 128.294V124.983H39.8339V128.305C39.8339 128.976 39.9329 129.702 40.3619 130.241C40.8569 130.868 41.6489 131.143 42.4299 131.143C43.2219 131.143 44.0029 130.802 44.3549 130.065H44.3769V131H45.1029ZM52.7303 130.054V124.983H51.9603V126.061H51.9383C51.4213 125.258 50.5633 124.829 49.6173 124.829C47.8573 124.829 46.4713 126.27 46.4713 128.019C46.4713 129.768 47.8793 131.143 49.6173 131.143C50.5303 131.143 51.4983 130.736 51.9383 129.9H51.9603V130.428C51.9603 131.77 51.1353 132.672 49.7823 132.672C48.7373 132.672 47.9123 132.122 47.5273 131.154H46.7133C47.1313 132.584 48.3413 133.365 49.7933 133.365C50.6953 133.365 51.6303 132.98 52.1803 132.254C52.6753 131.594 52.7303 130.846 52.7303 130.054ZM52.0043 127.997C52.0043 129.317 50.9483 130.45 49.6173 130.45C48.2643 130.45 47.2413 129.317 47.2413 127.997C47.2413 126.666 48.2643 125.522 49.6173 125.522C50.9703 125.522 52.0043 126.677 52.0043 127.997ZM55.1707 124.246V122.86H54.4007V124.246H55.1707ZM55.1707 131V124.983H54.4007V131H55.1707ZM62.1138 131V127.689C62.1138 126.028 61.1898 124.829 59.4628 124.829C58.7478 124.829 58.0108 125.137 57.6148 125.753H57.5928V124.983H56.8228V131H57.5928V127.634C57.5928 127.084 57.7358 126.435 58.1538 126.039C58.5058 125.709 58.9788 125.522 59.4628 125.522C59.9468 125.522 60.4198 125.709 60.7718 126.039C61.2008 126.446 61.3438 127.117 61.3438 127.689V131H62.1138ZM67.0457 129.306C67.0457 127.084 64.2517 127.799 64.2517 126.424C64.2517 125.907 64.6477 125.522 65.1647 125.522C65.7147 125.522 66.0337 125.951 66.0667 126.468H66.8367C66.8367 125.544 66.1217 124.829 65.1977 124.829C64.2187 124.829 63.4817 125.511 63.4817 126.501C63.4817 128.514 66.2757 127.777 66.2757 129.372C66.2757 130.065 65.8357 130.45 65.1537 130.45C64.4167 130.45 64.0867 129.911 64.0757 129.218H63.3057V129.284C63.3057 130.362 64.0757 131.143 65.1537 131.143C66.2867 131.143 67.0457 130.461 67.0457 129.306ZM72.2821 124.246V122.86H71.5121V124.246H72.2821ZM72.2821 131V124.983H71.5121V131H72.2821ZM79.2253 131V127.689C79.2253 126.028 78.3013 124.829 76.5743 124.829C75.8593 124.829 75.1223 125.137 74.7263 125.753H74.7043V124.983H73.9343V131H74.7043V127.634C74.7043 127.084 74.8473 126.435 75.2653 126.039C75.6173 125.709 76.0903 125.522 76.5743 125.522C77.0583 125.522 77.5313 125.709 77.8833 126.039C78.3123 126.446 78.4553 127.117 78.4553 127.689V131H79.2253ZM83.7831 125.676V124.983H82.3421V122.86H81.5721V124.983H80.3071V125.676H81.5721V131H82.3421V125.676H83.7831ZM90.7997 128.052C90.7997 126.314 89.4027 124.829 87.6427 124.829C85.9157 124.829 84.5187 126.281 84.5187 127.997C84.5187 129.724 85.9157 131.143 87.6537 131.143C88.9847 131.143 90.1727 130.285 90.6127 129.031H89.7987C89.4687 129.922 88.5667 130.45 87.6427 130.45C86.4657 130.45 85.3657 129.46 85.3107 128.272H90.7887C90.7887 128.195 90.7997 128.129 90.7997 128.052ZM90.0077 127.579H85.3107C85.4977 126.402 86.4547 125.522 87.6537 125.522C88.8637 125.522 89.8097 126.402 90.0077 127.579ZM98.141 130.054V124.983H97.371V126.061H97.349C96.832 125.258 95.974 124.829 95.028 124.829C93.268 124.829 91.882 126.27 91.882 128.019C91.882 129.768 93.29 131.143 95.028 131.143C95.941 131.143 96.909 130.736 97.349 129.9H97.371V130.428C97.371 131.77 96.546 132.672 95.193 132.672C94.148 132.672 93.323 132.122 92.938 131.154H92.124C92.542 132.584 93.752 133.365 95.204 133.365C96.106 133.365 97.041 132.98 97.591 132.254C98.086 131.594 98.141 130.846 98.141 130.054ZM97.415 127.997C97.415 129.317 96.359 130.45 95.028 130.45C93.675 130.45 92.652 129.317 92.652 127.997C92.652 126.666 93.675 125.522 95.028 125.522C96.381 125.522 97.415 126.677 97.415 127.997ZM102.297 125.643V124.829C101.516 124.884 100.933 125.082 100.603 125.852H100.581V124.983H99.8113V131H100.581V127.48C100.581 126.402 101.241 125.731 102.297 125.643ZM109.381 131V124.983H108.611V126.039H108.589C108.072 125.225 107.192 124.829 106.246 124.829C104.475 124.829 103.012 126.171 103.012 127.975C103.012 129.79 104.442 131.143 106.246 131.143C107.181 131.143 108.061 130.736 108.589 129.944H108.611V131H109.381ZM108.655 127.997C108.655 129.339 107.61 130.45 106.246 130.45C104.838 130.45 103.782 129.416 103.782 128.008C103.782 126.589 104.816 125.522 106.246 125.522C107.61 125.522 108.655 126.655 108.655 127.997ZM113.909 125.676V124.983H112.468V122.86H111.698V124.983H110.433V125.676H111.698V131H112.468V125.676H113.909ZM120.925 128.052C120.925 126.314 119.528 124.829 117.768 124.829C116.041 124.829 114.644 126.281 114.644 127.997C114.644 129.724 116.041 131.143 117.779 131.143C119.11 131.143 120.298 130.285 120.738 129.031H119.924C119.594 129.922 118.692 130.45 117.768 130.45C116.591 130.45 115.491 129.46 115.436 128.272H120.914C120.914 128.195 120.925 128.129 120.925 128.052ZM120.133 127.579H115.436C115.623 126.402 116.58 125.522 117.779 125.522C118.989 125.522 119.935 126.402 120.133 127.579ZM128.398 131V122.86H127.628V126.017H127.606C127.078 125.247 126.187 124.829 125.263 124.829C123.492 124.829 122.029 126.171 122.029 127.975C122.029 129.79 123.459 131.143 125.263 131.143C126.176 131.143 127.089 130.714 127.606 129.944H127.628V131H128.398ZM127.672 127.997C127.672 129.339 126.627 130.45 125.263 130.45C123.855 130.45 122.799 129.416 122.799 128.008C122.799 126.589 123.833 125.522 125.263 125.522C126.627 125.522 127.672 126.655 127.672 127.997ZM136.251 125.676V124.983H134.81V122.86H134.04V124.983H132.775V125.676H134.04V131H134.81V125.676H136.251ZM143.323 127.986C143.323 126.27 141.882 124.829 140.166 124.829C138.417 124.829 137.031 126.292 137.031 128.03C137.031 129.724 138.472 131.143 140.166 131.143C141.893 131.143 143.323 129.713 143.323 127.986ZM142.553 127.953C142.553 129.306 141.563 130.45 140.177 130.45C138.846 130.45 137.801 129.328 137.801 128.019C137.801 126.688 138.813 125.522 140.177 125.522C141.497 125.522 142.553 126.644 142.553 127.953ZM154.891 122.86H154.011L151.129 129.988L148.258 122.86H147.356L150.711 131H151.514L154.891 122.86ZM158.496 129.306C158.496 127.084 155.702 127.799 155.702 126.424C155.702 125.907 156.098 125.522 156.615 125.522C157.165 125.522 157.484 125.951 157.517 126.468H158.287C158.287 125.544 157.572 124.829 156.648 124.829C155.669 124.829 154.932 125.511 154.932 126.501C154.932 128.514 157.726 127.777 157.726 129.372C157.726 130.065 157.286 130.45 156.604 130.45C155.867 130.45 155.537 129.911 155.526 129.218H154.756V129.284C154.756 130.362 155.526 131.143 156.604 131.143C157.737 131.143 158.496 130.461 158.496 129.306ZM168.924 129.229H168.077C167.659 130.032 166.845 130.45 165.954 130.45C164.557 130.45 163.468 129.372 163.468 127.975C163.468 126.589 164.579 125.522 165.954 125.522C166.856 125.522 167.659 126.006 168.077 126.798H168.924C168.429 125.566 167.241 124.829 165.932 124.829C164.172 124.829 162.698 126.226 162.698 127.997C162.698 129.79 164.161 131.143 165.932 131.143C167.329 131.143 168.308 130.439 168.924 129.229ZM176.343 127.986C176.343 126.27 174.902 124.829 173.186 124.829C171.437 124.829 170.051 126.292 170.051 128.03C170.051 129.724 171.492 131.143 173.186 131.143C174.913 131.143 176.343 129.713 176.343 127.986ZM175.573 127.953C175.573 129.306 174.583 130.45 173.197 130.45C171.866 130.45 170.821 129.328 170.821 128.019C170.821 126.688 171.833 125.522 173.197 125.522C174.517 125.522 175.573 126.644 175.573 127.953ZM183.815 131V122.86H183.045V126.017H183.023C182.495 125.247 181.604 124.829 180.68 124.829C178.909 124.829 177.446 126.171 177.446 127.975C177.446 129.79 178.876 131.143 180.68 131.143C181.593 131.143 182.506 130.714 183.023 129.944H183.045V131H183.815ZM183.089 127.997C183.089 129.339 182.044 130.45 180.68 130.45C179.272 130.45 178.216 129.416 178.216 128.008C178.216 126.589 179.25 125.522 180.68 125.522C182.044 125.522 183.089 126.655 183.089 127.997ZM191.466 128.052C191.466 126.314 190.069 124.829 188.309 124.829C186.582 124.829 185.185 126.281 185.185 127.997C185.185 129.724 186.582 131.143 188.32 131.143C189.651 131.143 190.839 130.285 191.279 129.031H190.465C190.135 129.922 189.233 130.45 188.309 130.45C187.132 130.45 186.032 129.46 185.977 128.272H191.455C191.455 128.195 191.466 128.129 191.466 128.052ZM190.674 127.579H185.977C186.164 126.402 187.121 125.522 188.32 125.522C189.53 125.522 190.476 126.402 190.674 127.579Z"
                fill="white" />
        </g>
        <rect x="0.53" y="0.53" width="468.94" height="239.94" rx="8.00543"
            stroke="url(#paint1_linear_1_71)" stroke-opacity="0.24" stroke-width="0.94" />
    </g>
    <defs>
        <filter id="filter0_b_1_71" x="-234.76" y="-234.76" width="939.52" height="710.52"
            filterUnits="userSpaceOnUse" color-interpolation-filters="sRGB">
            <feFlood flood-opacity="0" result="BackgroundImageFix" />
            <feGaussianBlur in="BackgroundImageFix" stdDeviation="117.41" />
            <feComposite in2="SourceAlpha" operator="in" result="effect1_backgroundBlur_1_71" />
            <feBlend mode="normal" in="SourceGraphic" in2="effect1_backgroundBlur_1_71"
                result="shape" />
        </filter>
        <linearGradient id="paint0_linear_1_71" x1="235.25" y1="85" x2="235.25" y2="285"
            gradientUnits="userSpaceOnUse">
            <stop offset="0.26656" stop-color="#371D62" />
            <stop offset="0.840541" stop-color="#352551" />
        </linearGradient>
        <linearGradient id="paint1_linear_1_71" x1="235" y1="1" x2="-1.5" y2="209"
            gradientUnits="userSpaceOnUse">
            <stop offset="0.7032" stop-color="white" />
            <stop offset="1" stop-color="white" stop-opacity="0" />
        </linearGradient>
        <clipPath id="clip0_1_71">
            <rect x="1" y="1" width="468" height="239" rx="7.53543" fill="white" />
        </clipPath>
        <clipPath id="clip1_1_71">
            <rect width="9" height="9" fill="white" transform="translate(432 16)" />
        </clipPath>
        <clipPath id="clip2_1_71">
            <rect width="10" height="10" fill="white" transform="translate(30 69)" />
        </clipPath>
    </defs>
</svg>