<svg width="252" height="430" preserveAspectRatio="none" fill="none"
    xmlns="http://www.w3.org/2000/svg">
    <g clip-path="url(#clip0_158_401)">
        <g opacity="0.5">
            <path
                d="M1448.9 428.893L1448.8 428.86C1448.7 428.831 1448.56 428.788 1448.38 428.732C1448 428.619 1447.44 428.451 1446.69 428.233C1445.18 427.798 1442.92 427.159 1439.87 426.346C1433.77 424.72 1424.55 422.398 1412.03 419.615C1387 414.045 1348.78 406.622 1296.04 399.201C1191.21 384.445 1028.97 369.702 798.851 369.522V369.514H625.724V369.522C395.789 369.71 233.67 384.45 128.907 399.201C76.1885 406.622 37.9839 414.045 12.9563 419.615C0.442421 422.398 -8.77601 424.72 -14.8705 426.346C-17.9166 427.159 -20.184 427.798 -21.6881 428.233C-22.4402 428.451 -23.0032 428.619 -23.377 428.732C-23.5639 428.788 -23.7063 428.831 -23.7998 428.86L-23.9043 428.893L-23.9332 428.901L-23.9399 428.902C-23.9421 428.904 -23.9399 428.904 -23.7486 429.493C-23.555 430.082 -23.5572 430.082 -23.555 430.081L-23.5483 430.079L-23.5239 430.071L-23.4215 430.04C-23.3303 430.011 -23.19 429.97 -23.0054 429.913C-22.636 429.802 -22.0775 429.636 -21.3299 429.419C-19.8346 428.986 -17.5762 428.348 -14.5389 427.539C-8.46229 425.918 0.740587 423.601 13.2366 420.821C38.2309 415.259 76.3976 407.842 129.085 400.424C234.46 385.588 397.908 370.75 630.154 370.75V370.662H794.632V370.75C1026.95 370.75 1190.46 385.588 1295.86 400.424C1348.57 407.842 1386.75 415.259 1411.75 420.821C1424.25 423.601 1433.46 425.918 1439.54 427.539C1442.58 428.348 1444.83 428.986 1446.33 429.419C1447.08 429.636 1447.64 429.802 1448.01 429.913C1448.19 429.97 1448.33 430.011 1448.42 430.04L1448.52 430.071L1448.55 430.079L1448.55 430.081C1448.55 430.082 1448.56 430.082 1448.75 429.493C1448.94 428.904 1448.94 428.904 1448.94 428.902L1448.93 428.901L1448.9 428.893ZM1295.9 361.382C1348.61 366.328 1386.79 371.273 1411.8 374.982C1424.3 376.837 1433.51 378.381 1439.59 379.463C1442.63 380.002 1444.89 380.425 1446.39 380.715C1447.14 380.86 1447.7 380.971 1448.07 381.047C1448.25 381.084 1448.39 381.111 1448.48 381.13L1448.59 381.151L1448.62 381.158C1448.62 381.159 1448.62 381.159 1448.75 380.554C1448.88 379.949 1448.88 379.949 1448.88 379.949L1448.85 379.941L1448.74 379.92C1448.65 379.9 1448.51 379.873 1448.32 379.834C1447.95 379.76 1447.39 379.648 1446.63 379.503C1445.13 379.213 1442.87 378.786 1439.82 378.245C1433.73 377.162 1424.51 375.615 1411.99 373.759C1386.96 370.047 1348.75 365.1 1296.02 360.151C1191.2 350.316 1028.97 340.485 798.851 340.366V340.361H625.724V340.366C395.796 340.492 233.688 350.318 128.934 360.151C76.2196 365.1 38.0217 370.047 12.9985 373.759C0.486967 375.615 -8.72929 377.162 -14.8216 378.245C-17.8677 378.786 -20.1306 379.213 -21.6348 379.503C-22.3868 379.648 -22.9476 379.76 -23.3214 379.834C-23.5082 379.873 -23.6506 379.9 -23.7441 379.92L-23.8487 379.941L-23.8821 379.949C-23.8843 379.949 -23.8843 379.949 -23.753 380.554C-23.6217 381.159 -23.6217 381.159 -23.6195 381.158L-23.5884 381.151L-23.4838 381.13C-23.3925 381.111 -23.2524 381.084 -23.0677 381.047C-22.6961 380.971 -22.1376 380.86 -21.39 380.715C-19.8925 380.425 -17.6363 380.002 -14.5968 379.463C-8.51791 378.381 0.689457 376.837 13.1877 374.982C38.1864 371.273 76.3621 366.328 129.054 361.382C234.44 351.492 397.894 341.598 630.15 341.598V341.507H794.636V341.598C1026.97 341.598 1190.48 351.492 1295.9 361.382ZM1295.92 323.951C1348.63 326.732 1386.83 329.514 1411.84 331.6C1424.34 332.644 1433.55 333.513 1439.64 334.121C1442.68 334.426 1444.94 334.666 1446.44 334.828C1447.19 334.909 1447.75 334.971 1448.12 335.013C1448.3 335.034 1448.44 335.05 1448.53 335.062L1448.67 335.076C1448.67 335.078 1448.67 335.078 1448.75 334.463C1448.82 333.849 1448.82 333.849 1448.82 333.849L1448.68 333.833C1448.59 333.822 1448.45 333.806 1448.26 333.785C1447.89 333.743 1447.33 333.68 1446.58 333.598C1445.07 333.436 1442.81 333.196 1439.77 332.892C1433.68 332.283 1424.46 331.412 1411.95 330.369C1386.92 328.281 1348.71 325.498 1295.99 322.716C1191.18 317.183 1028.96 311.655 798.851 311.587V311.584H625.724V311.587C395.807 311.658 233.706 317.184 128.963 322.716C76.253 325.498 38.0596 328.281 13.0431 330.369C0.533684 331.412 -8.68257 332.283 -14.7704 332.892C-17.8143 333.196 -20.0772 333.436 -21.5791 333.598C-22.3312 333.68 -22.8897 333.743 -23.2635 333.785C-23.4504 333.806 -23.5906 333.822 -23.684 333.833L-23.822 333.849C-23.8242 333.849 -23.8242 333.849 -23.7486 334.463C-23.6729 335.078 -23.6729 335.078 -23.6707 335.076L-23.5372 335.062C-23.4437 335.05 -23.3036 335.034 -23.1189 335.013C-22.7473 334.971 -22.1888 334.909 -21.4389 334.828C-19.9415 334.666 -17.683 334.426 -14.6413 334.121C-8.56021 333.513 0.647152 332.644 13.1499 331.6C38.1531 329.514 76.3353 326.732 129.032 323.951C234.427 318.385 397.89 312.822 630.154 312.822V312.732H794.632V312.822C1026.97 312.822 1190.49 318.385 1295.92 323.951ZM1295.93 284.508C1348.64 286.517 1386.84 288.528 1411.85 290.036C1424.36 290.79 1433.57 291.417 1439.65 291.857C1442.7 292.076 1444.96 292.246 1446.46 292.364C1447.21 292.423 1447.77 292.469 1448.14 292.499L1448.55 292.533L1448.69 292.544C1448.69 292.544 1448.69 292.544 1448.75 291.929C1448.8 291.313 1448.8 291.313 1448.8 291.313L1448.66 291.301L1448.24 291.268C1447.87 291.237 1447.31 291.19 1446.56 291.132C1445.05 291.013 1442.79 290.843 1439.75 290.622C1433.66 290.183 1424.44 289.553 1411.93 288.8C1386.9 287.291 1348.7 285.284 1295.98 283.273C1191.17 279.279 1028.95 275.285 798.851 275.237L625.724 275.235C395.809 275.287 233.713 279.281 128.974 283.273C76.2664 285.284 38.0729 287.291 13.0586 288.8C0.551476 289.553 -8.66254 290.183 -14.7503 290.622C-17.7943 290.843 -20.0549 291.013 -21.5569 291.132C-22.3067 291.19 -22.8697 291.237 -23.2435 291.268L-23.6618 291.301L-23.7998 291.313C-23.802 291.313 -23.8042 291.313 -23.7486 291.929C-23.6929 292.544 -23.6929 292.544 -23.6907 292.544L-23.555 292.533L-23.1367 292.499C-22.7651 292.469 -22.2066 292.423 -21.4567 292.364C-19.9571 292.246 -17.6986 292.076 -14.6569 291.857C-8.57352 291.417 0.633842 290.79 13.1365 290.036C38.1419 288.528 76.3242 286.517 129.023 284.508C234.42 280.49 397.89 276.47 630.157 276.47V276.382H794.632V276.47C1026.97 276.47 1190.5 280.49 1295.93 284.508ZM1295.95 244.262C1348.67 244.88 1386.86 245.498 1411.88 245.962C1424.39 246.194 1433.6 246.387 1439.69 246.522C1442.73 246.59 1444.99 246.645 1446.49 246.682C1447.24 246.699 1447.8 246.712 1448.18 246.722L1448.73 246.736C1448.73 246.736 1448.73 246.735 1448.75 246.117C1448.77 245.498 1448.77 245.498 1448.76 245.498L1448.21 245.487C1447.84 245.477 1447.28 245.461 1446.53 245.444C1445.02 245.407 1442.76 245.354 1439.72 245.286C1433.63 245.151 1424.42 244.959 1411.91 244.727C1386.88 244.264 1348.68 243.645 1295.96 243.027C1191.16 241.799 1028.95 240.567 798.851 240.553V240.551H625.724V240.553C395.814 240.569 233.724 241.799 128.989 243.027C76.2842 243.645 38.0952 244.264 13.0831 244.727C0.575989 244.959 -8.63586 245.151 -14.7214 245.286C-17.7631 245.354 -20.026 245.407 -21.5257 245.444C-22.2756 245.461 -22.8341 245.477 -23.2079 245.487L-23.7642 245.498C-23.7663 245.498 -23.7686 245.498 -23.7508 246.117C-23.733 246.735 -23.733 246.736 -23.7308 246.736L-23.1767 246.722C-22.8052 246.712 -22.2444 246.699 -21.4945 246.682C-19.9949 246.645 -17.7342 246.59 -14.6925 246.522C-8.60917 246.387 0.602674 246.194 13.1076 245.962C38.1174 245.498 76.2997 244.88 129.003 244.262C234.407 243.026 397.881 241.789 630.154 241.789V241.699H794.634V241.789C1026.98 241.789 1190.51 243.026 1295.95 244.262ZM129.036 200.767C76.3375 198.757 38.1552 196.748 13.1499 195.241C0.647152 194.488 -8.56021 193.86 -14.6436 193.42C-17.6852 193.201 -19.9437 193.027 -21.4434 192.91C-22.1932 192.852 -22.754 192.807 -23.1255 192.776L-23.5416 192.742L-23.6774 192.73C-23.6796 192.73 -23.6818 192.73 -23.7352 193.346C-23.7909 193.963 -23.7886 193.963 -23.7864 193.963L-23.6485 193.974L-23.2301 194.008C-22.8563 194.038 -22.2956 194.083 -21.5457 194.143C-20.0438 194.261 -17.7809 194.434 -14.737 194.653C-8.64923 195.093 0.564852 195.722 13.072 196.476C38.0885 197.982 76.2797 199.993 128.987 202.002C233.724 205.996 395.818 209.989 625.724 210.04L798.851 210.042C1028.95 209.993 1191.16 205.998 1295.96 202.002C1348.69 199.993 1386.89 197.982 1411.92 196.476C1424.43 195.722 1433.64 195.093 1439.73 194.653C1442.78 194.434 1445.04 194.261 1446.54 194.143C1447.3 194.083 1447.86 194.038 1448.23 194.008L1448.65 193.974L1448.79 193.963C1448.79 193.963 1448.79 193.963 1448.74 193.346C1448.68 192.73 1448.68 192.73 1448.68 192.73L1448.54 192.742L1448.12 192.776C1447.75 192.807 1447.19 192.852 1446.44 192.91C1444.94 193.027 1442.68 193.201 1439.64 193.42C1433.56 193.86 1424.35 194.488 1411.84 195.241C1386.82 196.748 1348.63 198.757 1295.91 200.767C1190.48 204.786 1026.96 208.805 794.619 208.805V208.894H630.17V208.805C397.901 208.805 234.434 204.786 129.036 200.767ZM129.045 160.922C76.3487 158.139 38.1664 155.359 13.1632 153.272C0.660528 152.229 -8.54683 151.358 -14.628 150.75C-17.6697 150.446 -19.9281 150.209 -21.4256 150.046C-22.1754 149.964 -22.7339 149.902 -23.1055 149.858C-23.2924 149.837 -23.4304 149.824 -23.5239 149.813L-23.6574 149.795C-23.6595 149.795 -23.6595 149.797 -23.7352 150.41C-23.8109 151.025 -23.8109 151.024 -23.8086 151.024L-23.6707 151.041C-23.5772 151.053 -23.4371 151.067 -23.2501 151.09C-22.8763 151.131 -22.3178 151.194 -21.5658 151.275C-20.0638 151.439 -17.8009 151.676 -14.7571 151.981C-8.6692 152.59 0.547062 153.459 13.0564 154.504C38.0729 156.59 76.2664 159.374 128.976 162.157C233.717 167.687 395.814 173.214 625.724 173.284V173.288H798.851V173.284C1028.95 173.217 1191.16 167.689 1295.97 162.157C1348.7 159.374 1386.91 156.59 1411.93 154.504C1424.44 153.459 1433.66 152.59 1439.75 151.981C1442.8 151.676 1445.06 151.439 1446.56 151.275C1447.32 151.194 1447.88 151.131 1448.25 151.09C1448.44 151.067 1448.58 151.053 1448.67 151.041L1448.81 151.024C1448.81 151.024 1448.81 151.025 1448.74 150.41C1448.66 149.797 1448.66 149.795 1448.66 149.795L1448.52 149.813C1448.43 149.824 1448.29 149.837 1448.11 149.858C1447.73 149.902 1447.18 149.964 1446.43 150.046C1444.93 150.209 1442.67 150.446 1439.63 150.75C1433.54 151.358 1424.33 152.229 1411.83 153.272C1386.81 155.359 1348.62 158.139 1295.91 160.922C1190.48 166.486 1026.96 172.053 794.619 172.053V172.141H630.168V172.053C397.903 172.053 234.44 166.486 129.045 160.922ZM129.103 83.6439C76.4154 76.2257 38.2465 68.8092 13.2522 63.2472C0.756207 60.467 -8.44674 58.1505 -14.5234 56.5294C-17.5606 55.7196 -19.8168 55.0822 -21.3121 54.6491C-22.0597 54.4318 -22.6205 54.266 -22.9898 54.1549C-23.1745 54.0985 -23.3125 54.0567 -23.4037 54.0277L-23.5061 53.9955L-23.5305 53.9891L-23.5372 53.9859C-23.5372 53.9859 -23.5394 53.9859 -23.7308 54.5751C-23.9244 55.1642 -23.9244 55.1642 -23.9221 55.1642L-23.9155 55.1675L-23.8888 55.1755L-23.782 55.2077C-23.6885 55.2367 -23.5461 55.2802 -23.3592 55.3365C-22.9854 55.4492 -22.4224 55.6166 -21.6704 55.8339C-20.1662 56.2702 -17.9011 56.9093 -14.855 57.7223C-8.76046 59.3482 0.460279 61.668 12.9741 64.453C38.0017 70.0214 76.2063 77.4444 128.925 84.8673C233.686 99.6167 395.798 114.355 625.724 114.545V114.554H798.851V114.546C1028.96 114.366 1191.2 99.6215 1296.03 84.8673C1348.76 77.4444 1386.98 70.0214 1412.01 64.453C1424.53 61.668 1433.76 59.3482 1439.85 57.7223C1442.9 56.9093 1445.16 56.2702 1446.67 55.8339C1447.42 55.6166 1447.99 55.4492 1448.36 55.3365C1448.55 55.2802 1448.69 55.2367 1448.78 55.2077L1448.89 55.1755L1448.92 55.1675L1448.92 55.1642C1448.92 55.1642 1448.92 55.1642 1448.73 54.5751C1448.54 53.9859 1448.54 53.9859 1448.54 53.9859L1448.53 53.9891L1448.51 53.9955L1448.4 54.0277C1448.31 54.0567 1448.17 54.0985 1447.99 54.1549C1447.62 54.266 1447.06 54.4318 1446.31 54.6491C1444.81 55.0822 1442.56 55.7196 1439.52 56.5294C1433.44 58.1505 1424.23 60.467 1411.73 63.2472C1386.73 68.8092 1348.55 76.2257 1295.85 83.6439C1190.44 98.4801 1026.94 113.318 794.616 113.318L630.172 113.407V113.318C397.925 113.318 234.478 98.4801 129.103 83.6439ZM1448.73 0.556992C1448.46 0 1448.45 0 1448.45 0L1448.45 0.0032179L1448.42 0.0144928L1448.32 0.0611647C1448.23 0.103022 1448.09 0.167429 1447.91 0.251144C1447.54 0.418549 1446.98 0.666475 1446.23 0.991655C1444.74 1.64204 1442.48 2.59506 1439.44 3.81049C1433.37 6.23974 1424.17 9.71375 1411.67 13.8832C1386.67 22.2238 1348.5 33.3477 1295.8 44.4733C1190.41 66.7245 1026.92 82.7971 794.614 82.7971H630.174C397.941 82.7971 234.509 66.7245 129.15 44.4733C76.4689 33.3477 38.3066 22.2238 13.319 13.8832C0.825195 9.71375 -8.37551 6.23974 -14.4478 3.81049C-17.485 2.59506 -19.739 1.64204 -21.2342 0.991655C-21.9818 0.666475 -22.5381 0.418549 -22.9075 0.251144C-23.0922 0.167429 -23.2301 0.103022 -23.3214 0.0611647L-23.4237 0.0144928L-23.4482 0.0032179L-23.4549 0C-23.4549 0 -23.4549 0 -23.7285 0.556992C-24.0022 1.11401 -24 1.11561 -24 1.11561L-23.9933 1.11885L-23.9666 1.13172L-23.8598 1.18001C-23.7663 1.22347 -23.6239 1.28787 -23.4371 1.37319C-23.061 1.54221 -22.4981 1.79498 -21.746 2.12175C-20.2396 2.77698 -17.9722 3.73483 -14.9239 4.95508C-8.82721 7.39398 0.395704 10.8777 12.9118 15.0552C37.9461 23.4102 76.1551 34.5471 128.883 45.6823C233.657 67.8095 395.787 83.8177 625.724 84.0238L798.851 84.0254C1028.98 83.829 1191.22 67.816 1296.07 45.6823C1348.81 34.5471 1387.03 23.4102 1412.07 15.0552C1424.6 10.8777 1433.82 7.39398 1439.92 4.95508C1442.97 3.73483 1445.24 2.77698 1446.74 2.12175C1447.5 1.79498 1448.06 1.54221 1448.44 1.37319C1448.62 1.28787 1448.76 1.22347 1448.86 1.18001L1448.97 1.13172L1448.99 1.11885L1449 1.11561C1449 1.11561 1449 1.11401 1448.73 0.556992ZM129.074 122.428C76.3821 117.481 38.2064 112.536 13.2077 108.828C0.709488 106.974 -8.4957 105.428 -14.5746 104.348C-17.614 103.807 -19.8725 103.382 -21.3699 103.092C-22.1176 102.947 -22.6761 102.836 -23.0476 102.762C-23.2323 102.725 -23.3725 102.698 -23.4638 102.679L-23.5661 102.658L-23.5973 102.651C-23.5973 102.651 -23.5995 102.65 -23.7308 103.255C-23.862 103.86 -23.862 103.86 -23.8598 103.86L-23.8264 103.868L-23.7219 103.889C-23.6284 103.908 -23.4882 103.937 -23.3013 103.974C-22.9275 104.05 -22.3646 104.161 -21.6125 104.306C-20.1084 104.596 -17.8455 105.022 -14.7993 105.565C-8.70709 106.648 0.506998 108.195 13.0186 110.05C38.0418 113.762 76.2396 118.711 128.954 123.658C233.704 133.489 395.807 143.316 625.724 143.441V143.448H798.851V143.441C1028.96 143.32 1191.18 133.492 1296 123.658C1348.73 118.711 1386.94 113.762 1411.97 110.05C1424.48 108.195 1433.7 106.648 1439.8 105.565C1442.84 105.022 1445.11 104.596 1446.61 104.306C1447.36 104.161 1447.93 104.05 1448.3 103.974C1448.49 103.937 1448.63 103.908 1448.72 103.889L1448.83 103.868L1448.86 103.86C1448.86 103.86 1448.86 103.86 1448.73 103.255C1448.6 102.65 1448.6 102.651 1448.6 102.651L1448.57 102.658L1448.46 102.679C1448.37 102.698 1448.23 102.725 1448.05 102.762C1447.68 102.836 1447.12 102.947 1446.37 103.092C1444.87 103.382 1442.61 103.807 1439.57 104.348C1433.49 105.428 1424.28 106.974 1411.78 108.828C1386.77 112.536 1348.58 117.481 1295.87 122.428C1190.46 132.319 1026.95 142.211 794.614 142.211V142.3H630.172V142.211C397.917 142.211 234.46 132.319 129.074 122.428Z"
                fill="url(#paint0_linear_158_401)" />
        </g>
    </g>
    <defs>
        <linearGradient id="paint0_linear_158_401" x1="-25.78" y1="214.828" x2="1466.36"
            y2="213.598" gradientUnits="userSpaceOnUse">
            <stop offset="0.1" stop-color="#5B21FF" />
            <stop offset="0.14" stop-color="#8330FF" />
            <stop offset="0.18" stop-color="#AA3FFF" />
            <stop offset="0.47" stop-color="#C740C7" />
            <stop offset="0.75" stop-color="#E54190" />
            <stop offset="0.88" stop-color="#EE495F" />
            <stop offset="1" stop-color="#F8522E" />
        </linearGradient>
        <clipPath id="clip0_158_401">
            <rect width="261" height="430" fill="white" transform="translate(-9)" />
        </clipPath>
    </defs>
</svg>