<svg width="247" height="430" preserveAspectRatio="none" fill="none"
    xmlns="http://www.w3.org/2000/svg">
    <g clip-path="url(#clip0_158_398)">
        <g opacity="0.5">
            <path
                d="M261.904 428.893L261.8 428.86C261.704 428.831 261.564 428.788 261.377 428.732C261.003 428.619 260.44 428.451 259.688 428.233C258.182 427.798 255.917 427.159 252.868 426.346C246.772 424.72 237.549 422.398 225.033 419.615C199.996 414.045 161.78 406.622 109.044 399.201C4.21387 384.445 -158.025 369.702 -388.149 369.522V369.514H-561.276V369.522C-791.211 369.71 -953.33 384.45 -1058.09 399.201C-1110.81 406.622 -1149.02 414.045 -1174.04 419.615C-1186.56 422.398 -1195.78 424.72 -1201.87 426.346C-1204.92 427.159 -1207.18 427.798 -1208.69 428.233C-1209.44 428.451 -1210 428.619 -1210.38 428.732C-1210.56 428.788 -1210.71 428.831 -1210.8 428.86L-1210.9 428.893L-1210.93 428.901L-1210.94 428.902C-1210.94 428.904 -1210.94 428.904 -1210.75 429.493C-1210.55 430.082 -1210.56 430.082 -1210.55 430.081L-1210.55 430.079L-1210.52 430.071L-1210.42 430.04C-1210.33 430.011 -1210.19 429.97 -1210.01 429.913C-1209.64 429.802 -1209.08 429.636 -1208.33 429.419C-1206.83 428.986 -1204.58 428.348 -1201.54 427.539C-1195.46 425.918 -1186.26 423.601 -1173.76 420.821C-1148.77 415.259 -1110.6 407.842 -1057.91 400.424C-952.54 385.588 -789.092 370.75 -556.846 370.75V370.662H-392.368V370.75C-160.046 370.75 3.45508 385.588 108.864 400.424C161.569 407.842 199.751 415.259 224.752 420.821C237.253 423.601 246.458 425.918 252.537 427.539C255.576 428.348 257.832 428.986 259.33 429.419C260.078 429.636 260.636 429.802 261.005 429.913C261.19 429.97 261.328 430.011 261.421 430.04L261.524 430.071L261.548 430.079L261.555 430.081C261.555 430.082 261.557 430.082 261.749 429.493C261.942 428.904 261.94 428.904 261.938 428.902L261.931 428.901L261.904 428.893ZM108.897 361.382C161.607 366.328 199.794 371.273 224.801 374.982C237.304 376.837 246.513 378.381 252.595 379.463C255.634 380.002 257.893 380.425 259.39 380.715C260.14 380.86 260.698 380.971 261.068 381.047C261.255 381.084 261.392 381.111 261.484 381.13L261.588 381.151L261.62 381.158C261.622 381.159 261.622 381.159 261.753 380.554C261.884 379.949 261.884 379.949 261.882 379.949L261.849 379.941L261.744 379.92C261.651 379.9 261.51 379.873 261.321 379.834C260.948 379.76 260.387 379.648 259.635 379.503C258.13 379.213 255.865 378.786 252.819 378.245C246.727 377.162 237.506 375.615 224.99 373.759C199.96 370.047 161.749 365.1 109.017 360.151C4.19836 350.316 -158.032 340.485 -388.149 340.366V340.361H-561.276V340.366C-791.204 340.492 -953.312 350.318 -1058.07 360.151C-1110.78 365.1 -1148.98 370.047 -1174 373.759C-1186.51 375.615 -1195.73 377.162 -1201.82 378.245C-1204.87 378.786 -1207.13 379.213 -1208.63 379.503C-1209.39 379.648 -1209.95 379.76 -1210.32 379.834C-1210.51 379.873 -1210.65 379.9 -1210.74 379.92L-1210.85 379.941L-1210.88 379.949C-1210.88 379.949 -1210.88 379.949 -1210.75 380.554C-1210.62 381.159 -1210.62 381.159 -1210.62 381.158L-1210.59 381.151L-1210.48 381.13C-1210.39 381.111 -1210.25 381.084 -1210.07 381.047C-1209.7 380.971 -1209.14 380.86 -1208.39 380.715C-1206.89 380.425 -1204.64 380.002 -1201.6 379.463C-1195.52 378.381 -1186.31 376.837 -1173.81 374.982C-1148.81 371.273 -1110.64 366.328 -1057.95 361.382C-952.56 351.492 -789.106 341.598 -556.85 341.598V341.507H-392.364V341.598C-160.032 341.598 3.47742 351.492 108.897 361.382ZM108.919 323.951C161.634 326.732 199.827 329.514 224.837 331.6C237.344 332.644 246.553 333.513 252.637 334.121C255.678 334.426 257.939 334.666 259.439 334.828C260.189 334.909 260.747 334.971 261.119 335.013C261.304 335.034 261.444 335.05 261.535 335.062L261.671 335.076C261.673 335.078 261.673 335.078 261.749 334.463C261.824 333.849 261.822 333.849 261.822 333.849L261.684 333.833C261.591 333.822 261.45 333.806 261.263 333.785C260.89 333.743 260.329 333.68 259.577 333.598C258.075 333.436 255.812 333.196 252.766 332.892C246.676 332.283 237.457 331.412 224.946 330.369C199.92 328.281 161.714 325.498 108.986 322.716C4.17603 317.183 -158.043 311.655 -388.149 311.587V311.584H-561.276V311.587C-791.193 311.658 -953.294 317.184 -1058.04 322.716C-1110.75 325.498 -1148.94 328.281 -1173.96 330.369C-1186.47 331.412 -1195.68 332.283 -1201.77 332.892C-1204.81 333.196 -1207.08 333.436 -1208.58 333.598C-1209.33 333.68 -1209.89 333.743 -1210.26 333.785C-1210.45 333.806 -1210.59 333.822 -1210.68 333.833L-1210.82 333.849C-1210.82 333.849 -1210.82 333.849 -1210.75 334.463C-1210.67 335.078 -1210.67 335.078 -1210.67 335.076L-1210.54 335.062C-1210.44 335.05 -1210.3 335.034 -1210.12 335.013C-1209.75 334.971 -1209.19 334.909 -1208.44 334.828C-1206.94 334.666 -1204.68 334.426 -1201.64 334.121C-1195.56 333.513 -1186.35 332.644 -1173.85 331.6C-1148.85 329.514 -1110.66 326.732 -1057.97 323.951C-952.573 318.385 -789.11 312.822 -556.846 312.822V312.732H-392.368V312.822C-160.028 312.822 3.49084 318.385 108.919 323.951ZM108.928 284.508C161.645 286.517 199.838 288.528 224.852 290.036C237.357 290.79 246.569 291.417 252.655 291.857C255.696 292.076 257.957 292.246 259.457 292.364C260.207 292.423 260.765 292.469 261.137 292.499L261.555 292.533L261.691 292.544C261.693 292.544 261.693 292.544 261.746 291.929C261.802 291.313 261.802 291.313 261.8 291.313L261.662 291.301L261.241 291.268C260.87 291.237 260.309 291.19 259.557 291.132C258.055 291.013 255.792 290.843 252.748 290.622C246.658 290.183 237.442 289.553 224.928 288.8C199.905 287.291 161.703 285.284 108.977 283.273C4.16943 279.279 -158.047 275.285 -388.149 275.237L-561.276 275.235C-791.191 275.287 -953.287 279.281 -1058.03 283.273C-1110.73 285.284 -1148.93 287.291 -1173.94 288.8C-1186.45 289.553 -1195.66 290.183 -1201.75 290.622C-1204.79 290.843 -1207.05 291.013 -1208.56 291.132C-1209.31 291.19 -1209.87 291.237 -1210.24 291.268L-1210.66 291.301L-1210.8 291.313C-1210.8 291.313 -1210.8 291.313 -1210.75 291.929C-1210.69 292.544 -1210.69 292.544 -1210.69 292.544L-1210.55 292.533L-1210.14 292.499C-1209.77 292.469 -1209.21 292.423 -1208.46 292.364C-1206.96 292.246 -1204.7 292.076 -1201.66 291.857C-1195.57 291.417 -1186.37 290.79 -1173.86 290.036C-1148.86 288.528 -1110.68 286.517 -1057.98 284.508C-952.58 280.49 -789.11 276.47 -556.843 276.47V276.382H-392.368V276.47C-160.026 276.47 3.49512 280.49 108.928 284.508ZM108.946 244.262C161.667 244.88 199.865 245.498 224.881 245.962C237.388 246.194 246.602 246.387 252.688 246.522C255.732 246.59 257.993 246.645 259.495 246.682C260.245 246.699 260.803 246.712 261.177 246.722L261.731 246.736C261.733 246.736 261.733 246.735 261.751 246.117C261.766 245.498 261.766 245.498 261.764 245.498L261.208 245.487C260.836 245.477 260.276 245.461 259.526 245.444C258.024 245.407 255.761 245.354 252.717 245.286C246.629 245.151 237.415 244.959 224.906 244.727C199.885 244.264 161.685 243.645 108.962 243.027C4.1604 241.799 -158.052 240.567 -388.149 240.553V240.551H-561.276V240.553C-791.186 240.569 -953.276 241.799 -1058.01 243.027C-1110.72 243.645 -1148.9 244.264 -1173.92 244.727C-1186.42 244.959 -1195.64 245.151 -1201.72 245.286C-1204.76 245.354 -1207.03 245.407 -1208.53 245.444C-1209.28 245.461 -1209.83 245.477 -1210.21 245.487L-1210.76 245.498C-1210.77 245.498 -1210.77 245.498 -1210.75 246.117C-1210.73 246.735 -1210.73 246.736 -1210.73 246.736L-1210.18 246.722C-1209.81 246.712 -1209.24 246.699 -1208.49 246.682C-1206.99 246.645 -1204.73 246.59 -1201.69 246.522C-1195.61 246.387 -1186.4 246.194 -1173.89 245.962C-1148.88 245.498 -1110.7 244.88 -1058 244.262C-952.593 243.026 -789.119 241.789 -556.846 241.789V241.699H-392.366V241.789C-160.019 241.789 3.50854 243.026 108.946 244.262ZM-1057.96 200.767C-1110.66 198.757 -1148.84 196.748 -1173.85 195.241C-1186.35 194.488 -1195.56 193.86 -1201.64 193.42C-1204.69 193.201 -1206.94 193.027 -1208.44 192.91C-1209.19 192.852 -1209.75 192.807 -1210.13 192.776L-1210.54 192.742L-1210.68 192.73C-1210.68 192.73 -1210.68 192.73 -1210.74 193.346C-1210.79 193.963 -1210.79 193.963 -1210.79 193.963L-1210.65 193.974L-1210.23 194.008C-1209.86 194.038 -1209.3 194.083 -1208.55 194.143C-1207.04 194.261 -1204.78 194.434 -1201.74 194.653C-1195.65 195.093 -1186.44 195.722 -1173.93 196.476C-1148.91 197.982 -1110.72 199.993 -1058.01 202.002C-953.276 205.996 -791.182 209.989 -561.276 210.04L-388.149 210.042C-158.052 209.993 4.1582 205.998 108.964 202.002C161.689 199.993 199.891 197.982 224.917 196.476C237.429 195.722 246.645 195.093 252.735 194.653C255.779 194.434 258.042 194.261 259.543 194.143C260.296 194.083 260.856 194.038 261.23 194.008L261.649 193.974L261.786 193.963C261.789 193.963 261.789 193.963 261.735 193.346C261.68 192.73 261.68 192.73 261.677 192.73L261.542 192.742L261.123 192.776C260.752 192.807 260.193 192.852 259.443 192.91C257.944 193.027 255.683 193.201 252.641 193.42C246.558 193.86 237.346 194.488 224.839 195.241C199.825 196.748 161.631 198.757 108.915 200.767C3.48181 204.786 -160.039 208.805 -392.381 208.805V208.894H-556.83V208.805C-789.099 208.805 -952.566 204.786 -1057.96 200.767ZM-1057.95 160.922C-1110.65 158.139 -1148.83 155.359 -1173.84 153.272C-1186.34 152.229 -1195.55 151.358 -1201.63 150.75C-1204.67 150.446 -1206.93 150.209 -1208.43 150.046C-1209.18 149.964 -1209.73 149.902 -1210.11 149.858C-1210.29 149.837 -1210.43 149.824 -1210.52 149.813L-1210.66 149.795C-1210.66 149.795 -1210.66 149.797 -1210.74 150.41C-1210.81 151.025 -1210.81 151.024 -1210.81 151.024L-1210.67 151.041C-1210.58 151.053 -1210.44 151.067 -1210.25 151.09C-1209.88 151.131 -1209.32 151.194 -1208.57 151.275C-1207.06 151.439 -1204.8 151.676 -1201.76 151.981C-1195.67 152.59 -1186.45 153.459 -1173.94 154.504C-1148.93 156.59 -1110.73 159.374 -1058.02 162.157C-953.283 167.687 -791.186 173.214 -561.276 173.284V173.288H-388.149V173.284C-158.05 173.217 4.16492 167.689 108.975 162.157C161.7 159.374 199.907 156.59 224.932 154.504C237.444 153.459 246.662 152.59 252.753 151.981C255.799 151.676 258.062 151.439 259.564 151.275C260.316 151.194 260.876 151.131 261.25 151.09C261.437 151.067 261.577 151.053 261.671 151.041L261.809 151.024C261.811 151.024 261.811 151.025 261.735 150.41C261.66 149.797 261.66 149.795 261.657 149.795L261.522 149.813C261.43 149.824 261.292 149.837 261.106 149.858C260.734 149.902 260.175 149.964 259.426 150.046C257.926 150.209 255.667 150.446 252.626 150.75C246.542 151.358 237.331 152.229 224.826 153.272C199.814 155.359 161.62 158.139 108.906 160.922C3.47742 166.486 -160.041 172.053 -392.381 172.053V172.141H-556.832V172.053C-789.097 172.053 -952.56 166.486 -1057.95 160.922ZM-1057.9 83.6439C-1110.58 76.2257 -1148.75 68.8092 -1173.75 63.2472C-1186.24 60.467 -1195.45 58.1505 -1201.52 56.5294C-1204.56 55.7196 -1206.82 55.0822 -1208.31 54.6491C-1209.06 54.4318 -1209.62 54.266 -1209.99 54.1549C-1210.17 54.0985 -1210.31 54.0567 -1210.4 54.0277L-1210.51 53.9955L-1210.53 53.9891L-1210.54 53.9859C-1210.54 53.9859 -1210.54 53.9859 -1210.73 54.5751C-1210.92 55.1642 -1210.92 55.1642 -1210.92 55.1642L-1210.92 55.1675L-1210.89 55.1755L-1210.78 55.2077C-1210.69 55.2367 -1210.55 55.2802 -1210.36 55.3365C-1209.99 55.4492 -1209.42 55.6166 -1208.67 55.8339C-1207.17 56.2702 -1204.9 56.9093 -1201.85 57.7223C-1195.76 59.3482 -1186.54 61.668 -1174.03 64.453C-1149 70.0214 -1110.79 77.4444 -1058.08 84.8673C-953.314 99.6167 -791.202 114.355 -561.276 114.545V114.554H-388.149V114.546C-158.036 114.366 4.20056 99.6215 109.026 84.8673C161.763 77.4444 199.978 70.0214 225.015 64.453C237.533 61.668 246.756 59.3482 252.85 57.7223C255.899 56.9093 258.164 56.2702 259.67 55.8339C260.422 55.6166 260.985 55.4492 261.359 55.3365C261.548 55.2802 261.688 55.2367 261.782 55.2077L261.889 55.1755L261.916 55.1675L261.922 55.1642C261.922 55.1642 261.924 55.1642 261.731 54.5751C261.539 53.9859 261.539 53.9859 261.537 53.9859L261.531 53.9891L261.506 53.9955L261.404 54.0277C261.312 54.0567 261.175 54.0985 260.988 54.1549C260.618 54.266 260.06 54.4318 259.312 54.6491C257.815 55.0822 255.558 55.7196 252.519 56.5294C246.44 58.1505 237.235 60.467 224.734 63.2472C199.733 68.8092 161.551 76.2257 108.846 83.6439C3.43726 98.4801 -160.061 113.318 -392.384 113.318L-556.828 113.407V113.318C-789.075 113.318 -952.522 98.4801 -1057.9 83.6439ZM261.729 0.556992C261.457 0 261.455 0 261.455 0L261.448 0.0032179L261.424 0.0144928L261.321 0.0611647C261.23 0.103022 261.092 0.167429 260.908 0.251144C260.538 0.418549 259.98 0.666475 259.232 0.991655C257.737 1.64204 255.483 2.59506 252.443 3.81049C246.369 6.23974 237.166 9.71375 224.668 13.8832C199.673 22.2238 161.498 33.3477 108.801 44.4733C3.40613 66.7245 -160.079 82.7971 -392.386 82.7971H-556.826C-789.059 82.7971 -952.491 66.7245 -1057.85 44.4733C-1110.53 33.3477 -1148.69 22.2238 -1173.68 13.8832C-1186.17 9.71375 -1195.38 6.23974 -1201.45 3.81049C-1204.48 2.59506 -1206.74 1.64204 -1208.23 0.991655C-1208.98 0.666475 -1209.54 0.418549 -1209.91 0.251144C-1210.09 0.167429 -1210.23 0.103022 -1210.32 0.0611647L-1210.42 0.0144928L-1210.45 0.0032179L-1210.45 0C-1210.45 0 -1210.45 0 -1210.73 0.556992C-1211 1.11401 -1211 1.11561 -1211 1.11561L-1210.99 1.11885L-1210.97 1.13172L-1210.86 1.18001C-1210.77 1.22347 -1210.62 1.28787 -1210.44 1.37319C-1210.06 1.54221 -1209.5 1.79498 -1208.75 2.12175C-1207.24 2.77698 -1204.97 3.73483 -1201.92 4.95508C-1195.83 7.39398 -1186.6 10.8777 -1174.09 15.0552C-1149.05 23.4102 -1110.84 34.5471 -1058.12 45.6823C-953.343 67.8095 -791.213 83.8177 -561.276 84.0238L-388.149 84.0254C-158.021 83.829 4.22498 67.816 109.066 45.6823C161.812 34.5471 200.034 23.4102 225.075 15.0552C237.598 10.8777 246.823 7.39398 252.922 4.95508C255.97 3.73483 258.237 2.77698 259.744 2.12175C260.498 1.79498 261.061 1.54221 261.437 1.37319C261.624 1.28787 261.764 1.22347 261.86 1.18001L261.967 1.13172L261.993 1.11885L262 1.11561C262 1.11561 262.002 1.11401 261.729 0.556992ZM-1057.93 122.428C-1110.62 117.481 -1148.79 112.536 -1173.79 108.828C-1186.29 106.974 -1195.5 105.428 -1201.57 104.348C-1204.61 103.807 -1206.87 103.382 -1208.37 103.092C-1209.12 102.947 -1209.68 102.836 -1210.05 102.762C-1210.23 102.725 -1210.37 102.698 -1210.46 102.679L-1210.57 102.658L-1210.6 102.651C-1210.6 102.651 -1210.6 102.65 -1210.73 103.255C-1210.86 103.86 -1210.86 103.86 -1210.86 103.86L-1210.83 103.868L-1210.72 103.889C-1210.63 103.908 -1210.49 103.937 -1210.3 103.974C-1209.93 104.05 -1209.36 104.161 -1208.61 104.306C-1207.11 104.596 -1204.85 105.022 -1201.8 105.565C-1195.71 106.648 -1186.49 108.195 -1173.98 110.05C-1148.96 113.762 -1110.76 118.711 -1058.05 123.658C-953.296 133.489 -791.193 143.316 -561.276 143.441V143.448H-388.149V143.441C-158.043 143.32 4.18054 133.492 108.997 123.658C161.727 118.711 199.938 113.762 224.968 110.05C237.484 108.195 246.705 106.648 252.797 105.565C255.843 105.022 258.108 104.596 259.612 104.306C260.365 104.161 260.928 104.05 261.301 103.974C261.488 103.937 261.628 103.908 261.722 103.889L261.826 103.868L261.86 103.86C261.862 103.86 261.862 103.86 261.731 103.255C261.599 102.65 261.599 102.651 261.597 102.651L261.566 102.658L261.464 102.679C261.37 102.698 261.232 102.725 261.048 102.762C260.676 102.836 260.118 102.947 259.368 103.092C257.87 103.382 255.612 103.807 252.572 104.348C246.491 105.428 237.284 106.974 224.779 108.828C199.774 112.536 161.585 117.481 108.875 122.428C3.45508 132.319 -160.052 142.211 -392.386 142.211V142.3H-556.828V142.211C-789.083 142.211 -952.54 132.319 -1057.93 122.428Z"
                fill="url(#paint0_linear_158_398)" />
        </g>
    </g>
    <defs>
        <linearGradient id="paint0_linear_158_398" x1="-1212.78" y1="214.828" x2="279.355"
            y2="213.598" gradientUnits="userSpaceOnUse">
            <stop offset="0.1" stop-color="#5B21FF" />
            <stop offset="0.14" stop-color="#8330FF" />
            <stop offset="0.18" stop-color="#AA3FFF" />
            <stop offset="0.47" stop-color="#C740C7" />
            <stop offset="0.75" stop-color="#E54141" />
            <stop offset="0.88" stop-color="#EE4949" />
            <stop offset="1" stop-color="#86F82E" />
        </linearGradient>
        <clipPath id="clip0_158_398">
            <rect width="262" height="430" fill="white" />
        </clipPath>
    </defs>
</svg>